<?xml version="1.0" encoding="UTF-8"?>
<svg id="Capa_1" data-name="Capa 1" xmlns="http://www.w3.org/2000/svg" viewBox="0 0 219.74 149.33">
  <defs>
    <style>
      .cls-1 {
        fill: #000;
        stroke-width: 0px;
      }
    </style>
  </defs>
  <path class="cls-1" d="M45.93,96.09c4.96-7.6,6.72-15.93,6.96-24.4.21-7.61-.7-15.27-1.51-22.86-.15-1.38-1.95-3.33-3.33-3.69-4.24-1.09-6.8-3.87-6.31-7.74.33-2.64,2.59-5.92,4.93-7.22,3.17-1.75,6.97-.66,9.23,2.7,2.17,3.25,2.01,6.51-.55,9.67-.79.98-1.75,2.82-1.35,3.63,6.59,13.27,15.03,25.02,28.1,33.34,14.93-16.58,21.11-36.55,25.07-57.45-7.3-5.52-9.11-9.28-7.21-14.75C101.57,2.73,105.57-.14,110.15,0c4.6.15,8.49,3.3,9.79,7.92,1.48,5.27-.86,9.69-7.59,13.9,3.74,19.08,8.82,37.69,21.19,53.56,2.69,3.45,5.37,3.87,8.18,1.09,5.53-5.47,11.07-11,15.95-17.04,3.51-4.35,5.97-9.55,9.05-14.62-4.01-3.53-6.14-7.47-2.79-12.25,2.21-3.17,5.59-3.59,8.97-2.5,3.58,1.14,5.44,3.99,5.05,7.7-.54,5.15-3.95,7.41-9.1,7.25-3.72,17.67-3.44,34.58,4.57,51.49,14.83-7.41,26.51-17.69,36.42-30.61-.6-1.13-1.39-2.18-1.75-3.37-1.07-3.54,0-6.43,3.58-7.6,3.42-1.12,6.33.01,7.67,3.62,1.28,3.47-.62,7.43-4.23,7.55-3.79.12-5.02,2.26-6.38,4.97-9.66,19.24-17.44,39.17-22.57,60.13-.46,1.87-2.19,4.33-3.87,4.88-21.09,6.89-42.49,12.37-64.84,13.14-27.66.96-54.38-3.73-80.2-13.5-1.71-.65-3.41-3.03-3.9-4.92-5.33-20.89-12.83-40.92-22.89-59.99-1.18-2.23-2.11-4.04-5.37-4.19-3.85-.18-5.97-4.13-4.77-7.8,1.2-3.64,4.03-4.76,7.55-3.9,3.51.86,4.94,4.65,3.61,8.47-.42,1.21-.92,3.1-.33,3.85,9.41,12.06,20.37,22.31,34.76,28.85ZM69.48,83.25c7.57,8.74,15.69,10.94,23.49,7.22,9.57-4.57,16.25-17.25,14.28-27.12-6.11,20.77-20.66,30.5-37.77,19.9ZM112.56,64.2c-1.46,11.41,5.05,22.76,15.37,26.8,7.63,2.99,16.45.13,21.18-6.85-17.05,9.75-30.55-.56-36.55-19.95ZM193.01,94.99c-10.82,12.45-16.73,11.43-30.21-5.38,1.93,9.79,7.29,16.25,14.18,17.09,6.51.79,12.63-3.56,16.03-11.7ZM27.25,95.98c3.17,7.77,9.45,11.69,15.89,10.67,6.97-1.11,13.26-9.02,13.49-16.96-10.5,15.45-19.5,17.69-29.39,6.29ZM73.54,99.04c-1.79-1.42-2.89-2.95-3.81-2.85-1.07.12-2.68,1.6-2.77,2.6-.07.89,1.51,2.55,2.55,2.73.94.16,2.14-1.24,4.02-2.48ZM153.95,98.88c-1.72-1.28-3.03-2.91-3.82-2.69-1.2.34-2.03,1.96-3.02,3.03,1.02.86,2.02,2.37,3.06,2.39,1.03.03,2.1-1.44,3.78-2.74Z"/>
</svg>