<?xml version="1.0" encoding="utf-8"?>
<!-- Generator: Adobe Illustrator 28.0.0, SVG Export Plug-In . SVG Version: 6.00 Build 0)  -->
<svg version="1.1" id="OBJECTS" xmlns="http://www.w3.org/2000/svg" xmlns:xlink="http://www.w3.org/1999/xlink" x="0px" y="0px"
	 viewBox="0 0 643.2 31.2" style="enable-background:new 0 0 643.2 31.2;" xml:space="preserve">
<style type="text/css">
	.st0{fill:#BC9B3C;}
	.st1{fill:#BC9B3C;stroke:#BC9B3C;stroke-width:2.46;stroke-linecap:round;stroke-linejoin:round;}
</style>
<g>
	<path class="st0" d="M293.2,14.2c-2.1-2.2-0.1-4.1,2.4-4.2c2.4,0.5,2.9,3.5,2.7,5.6c-0.1,3.5-3.1,6.6-6.8,6.3
		c-8.3,0-13.9-11.1-8-17.5c4.7-4.9,12.3-5.4,18.4-3.1c11.9,4.5,19.3,17.2,20.1,29.4c0,0.5-0.8,0.6-0.8,0.1
		c-1.8-14.4-15.2-32.2-31.2-27.5c-8.5,2.5-8.5,12.5-0.9,16.1c5.1,2.3,9.1-1.5,8-6.8c-0.3-1.5-1.3-2.4-2.8-1.8
		C292.4,11.3,292.2,12.8,293.2,14.2L293.2,14.2L293.2,14.2z"/>
	<path class="st0" d="M349.9,14.2c1-1.4,0.9-2.9-0.9-3.3c-1.5-0.6-2.5,0.2-2.8,1.8c-1.1,5.3,2.9,9,8,6.8c7.6-3.6,7.6-13.6-0.9-16.1
		c-16-4.7-29.4,13.2-31.2,27.5c0,0.5-0.9,0.5-0.8-0.1c0.8-12.2,8.2-24.9,20.1-29.4c6-2.3,13.7-1.7,18.4,3.1c5.9,6.4,0.3,17.4-8,17.4
		c-3.6,0.2-6.6-2.8-6.8-6.3c-0.1-2,0.3-5.1,2.7-5.6C350.1,10,352.1,12,349.9,14.2L349.9,14.2L349.9,14.2z"/>
</g>
<path class="st0" d="M247.5,18.6c2.8-1.4,5.8,1.2,5.9,4.1c0,3.1-3,5.3-5.8,5.5c-4.5,0.1-7.8-4.4-7.6-8.7c0.1-4.3,3.5-7.7,7.3-9.2
	c10-3.5,26,5.2,35.5,8.8c10.3,4.1,16.3,5.8,26.6,0.3c2.1-1.1,4.1-2.4,6-3.8c1.9-1.4,3.8-2.9,5.4-4.5c0.5-0.5,1.2-0.5,1.7,0
	c6.3,5.7,14.1,11,22.8,11.5c2.8,0.2,5.6-0.6,8.3-1.4c6.9-2.2,13.3-5.3,20.1-7.9c6.9-2.4,14.7-5.8,22.3-3.3c5.5,2,9.4,8,6.5,13.7
	c-1.5,3.3-5.6,5.7-9.1,4c-3.6-1.5-4.9-6-1.5-8.5c1.1-0.8,2.6-0.9,3.6-0.3c-3.6-1-5.8,4.2-2.7,6.1c3.8,2.7,7.7-1.4,7.5-5.4
	c-0.1-3.1-2.8-5.4-5.5-6.4c-8.9-2.8-24.4,5.8-33.2,8.9c-11,4.4-18.4,6-29.1-0.2c-4.4-2.5-8.2-5.5-11.7-9.2h1.7
	c-6.6,6.5-14.9,12.3-24.4,13c-5.7,0.3-11.1-2-16.3-3.9c-9.1-3.2-24.4-11.9-33.5-8.9c-2.9,1.1-5.5,3.5-5.7,6.7c-0.2,2.9,2,6.3,5,6.4
	c1.8,0,4-1.3,4.2-3.3c0.2-2-1.8-4.1-3.9-3.4c-0.2,0.1-0.5,0-0.6-0.2C247.2,18.9,247.3,18.6,247.5,18.6L247.5,18.6L247.5,18.6z"/>
<g>
	<g>
		<path class="st0" d="M0.5,20.4c18.2-2.5,36.7-3.8,54.3-9.1c7-2.2,14.1-5.1,21.2-6.8c11.1-2.6,23.5-4,34.1,1.3
			c3.8,2,7.7,4.5,8.8,9.1c0.9,4.7-3.1,8.8-6.9,10.6c-7.1,3.5-15,3.8-22.6,2.6c-2.8-0.5-5.7-1.3-8-3.2c-2.8-2.1-3.1-5.8,0.1-7.7
			c1.7-1,3.6-1.3,5.5-1.4c0.3,0,0.3,0.5,0,0.5c-6.6,0.3-10,5.9-2.4,8.8c8,2.6,18.6,1.4,25.8-2.7c2.4-1.4,5.2-3.9,4.6-6.6
			c-0.4-1.9-2.6-3.7-4.4-4.6c-3.6-2.3-7.8-3.5-12.1-4c-12.5-1.3-25.1,2.6-36.9,6.5c-1.5,0.5-3.8,1.2-5.4,1.6
			c-18,4.9-36.8,5.5-55.3,6.3C0.3,21.6,0,21.3,0,21C0,20.7,0.2,20.4,0.5,20.4L0.5,20.4L0.5,20.4z"/>
		<line class="st1" x1="117" y1="16" x2="219.9" y2="16"/>
		<g>
			<path class="st0" d="M218.6,15.9c0,0,15.2-7.6,22.6,0C241.3,15.9,234.9,21.8,218.6,15.9z"/>
			<path class="st0" d="M220,16.2c0,0,3.1,1.1,4.4,3.5c1.3,2.5-0.7,4.6,2.7,4.8C230.4,24.7,232.2,18.5,220,16.2z"/>
			<path class="st0" d="M220,15.4c0,0,3.1-1.1,4.4-3.5c1.3-2.4-0.7-4.6,2.7-4.8C230.4,6.9,232.2,13.2,220,15.4z"/>
		</g>
	</g>
	<path class="st0" d="M213.2,16c0,1,1.6,1.8,3.5,1.8s3.5-0.8,3.5-1.8s-1.6-1.8-3.5-1.8S213.2,15,213.2,16z"/>
	<ellipse class="st0" cx="200" cy="16" rx="3.5" ry="1.8"/>
	<ellipse class="st0" cx="208.3" cy="16" rx="4.9" ry="2.5"/>
</g>
<g>
	<g>
		<path class="st0" d="M642.5,21.6c-18.5-0.8-37.3-1.4-55.3-6.3c-1.5-0.4-3.9-1.1-5.4-1.6c-8.5-2.9-17.5-5.6-26.4-6.5
			c-6.9-0.7-14.2-0.3-20.4,2.7c-6.9,3.3-9.9,7.6-2.1,12.5c6,3.5,13.7,4.5,20.6,3.9c3.3-0.4,7.4-1.2,9.2-4.1c1.6-3.7-3.4-5.7-6.4-5.8
			c-0.3,0-0.3-0.5,0-0.5c1.9,0.1,3.8,0.4,5.5,1.4c3.2,1.9,2.9,5.6,0.1,7.7c-2.3,1.8-5.2,2.6-8,3.2c-7.6,1.2-15.5,0.9-22.6-2.6
			c-3.8-1.8-7.9-5.9-7-10.6c1.1-4.6,5-7.1,8.8-9.1c15.9-7.6,34.6-1.7,50.2,3.8c5.1,1.8,10.4,3.3,15.7,4.4c10.7,2.3,21.8,3.7,32.7,5
			c3.7,0.4,7.3,0.9,11,1.4c0.3,0,0.5,0.3,0.5,0.7C643.1,21.4,642.9,21.6,642.5,21.6L642.5,21.6L642.5,21.6z"/>
		<line class="st1" x1="526.2" y1="16" x2="423.3" y2="16"/>
		<g>
			<path class="st0" d="M424.5,15.9c0,0-15.2-7.6-22.6,0C401.9,15.9,408.3,21.8,424.5,15.9L424.5,15.9z"/>
			<path class="st0" d="M423.2,16.2c0,0-3.1,1.1-4.4,3.5c-1.3,2.5,0.7,4.6-2.7,4.8C412.8,24.7,411,18.5,423.2,16.2z"/>
			<path class="st0" d="M423.2,15.4c0,0-3.1-1.1-4.4-3.5c-1.3-2.4,0.7-4.6-2.7-4.8C412.8,6.9,411,13.2,423.2,15.4z"/>
		</g>
	</g>
	<path class="st0" d="M430,16c0,1-1.5,1.8-3.5,1.8S423,17,423,16s1.5-1.8,3.5-1.8S430,15,430,16z"/>
	<ellipse class="st0" cx="443.2" cy="16" rx="3.5" ry="1.8"/>
	<ellipse class="st0" cx="434.9" cy="16" rx="4.9" ry="2.5"/>
</g>
</svg>
