<?xml version="1.0" encoding="utf-8"?>
<!-- Generator: Adobe Illustrator 28.3.0, SVG Export Plug-In . SVG Version: 6.00 Build 0)  -->
<svg version="1.1" id="Capa_1" xmlns="http://www.w3.org/2000/svg" xmlns:xlink="http://www.w3.org/1999/xlink" x="0px" y="0px"
	 viewBox="0 0 1056.6 51.6" style="enable-background:new 0 0 1056.6 51.6;" xml:space="preserve">
<style type="text/css">
	.st0{fill: #ff2d2d;}
	.st1{fill: #c40000;}
</style>
<path class="st0" d="M1056.5,35.8c-7.3,0.3-14.6,0.6-22,0.8c-4.1,0.1-8.1-0.1-7.8,2.4c0.2,1.3-2.9,2.1-6.7,1.5
	c-2.9-0.4-5.6-1-8.5-1.3c-3.2-0.4-6.5-1-9.7-0.9c-14.4,0.3-28.8,0.6-43.1,1.2c-9.1,0.4-18.1,1.4-27.1,2.2c-3.7,0.3-7,0.8-11.3,0.3
	c-2.7-0.3-7.5,0.5-9.8,1.4c-4.8,1.9-9.4,2.1-15.6,1.3c-11.5-1.5-23.4-2.6-35-4c-14.2-1.8-31.3,0.5-44.1,2.9c-2.5,0.5-5.2,1-8.1,0.9
	c-6-0.2-11.1-7.1-13.4-9c-0.7-0.5-1.4-1.1-2.8-1.3c-1.5-0.3-3.4-0.1-5,0.2c-16.7,2.2-34.1,5.4-51.3,6.8c-16.3,1.3-33,2.5-49.4,3.9
	c-3.5,0.3-7.3-0.2-10.9-0.2c-10.5,0.1-21,0.3-30.8-1.5c-1.7-0.3-3.6-0.4-5.5-0.5c-11-0.2-22-0.7-32.9-0.5
	c-6.8,0.2-13.5,1.4-19.9,2.4c-10.4,1.7-20.3,4-31,5.3c-9,1.1-18.8,1.2-28.3,1.5c-19.3,0.7-37.7-1.7-56.5-2.8
	c-16.5-0.9-33-1.7-49.4-2.7c-6.9-0.4-13.4-1.6-20.2-2.2c-4.9-0.4-10-0.3-15-0.6c-1.8-0.1-4.3-0.5-4.8-0.9c-4.2-3.9-9.5,3.2-18.4,3.1
	c-9.9-0.1-19.9,0.2-29.9,0.2c-2.8,0-5.7-0.4-8.4-0.7c-18.5-2.4-35,3.9-53.8,2c-22.5-2.2-45.6-3.6-68.5-5.1
	c-3.7-0.2-8.7,0.1-11.6,0.9c-9.2,2.6-18.3,5.3-26.4,8.4c-8,3-13.6-6.4-23.6-8.1c-4-0.7-7-0.8-10.6,0c-9.2,2-18.4,4-27.9,5.9
	c-2.4,0.5-5.8,0.4-8.6,0.3c-3.5-0.2-6.8-1-10.2-1.3c-6-0.5-12.1-1-18.1-1c-12.7,0.1-24.8-0.6-37-2c-8.3-0.9-20.2-9.2-27.5-11V2.3
	c2.7,0,5.5,0,8.2-0.1c18.1-0.9,33.3,1.5,47,5.8c1.6,0.5,4.2,1,5.9,0.9c7.6-0.7,15.2-1.4,22.3-2.6c5.8-0.9,10.7-2.6,16.2-3.8
	c6-1.3,8.9-1.1,13.5,0.9c9,3.8,11.7,3.6,19.5-0.7c1.4-0.8,4.5-1.1,6.9-1.6c1.2-0.3,3-0.3,3.9-0.7c7.8-3.1,16.4,11.8,21,7.7
	c6.9-1.1,11-4.2,19.5-4.2c6,0,12,0.1,18,0c2.1,0,4.2-0.5,6.2-0.9c0.9-0.2,1.3-0.6,2.1-0.8c2.3-0.6,4.7-1.2,7.1-1.8
	c1.1,1,2.6,1.9,3.1,2.9c1.8,3.3,6.9,5.3,16,4.3c4.2-0.5,8.7-0.8,13-1.1c5.8-0.5,10.1-1.7,13.7-3.5c4.6-2.4,7.4-2.3,11,0.3
	c1.8,1.3,3.8,1.7,7.4,1.1c2.9-0.5,5.7-0.4,7.8,0.7c4.6,2.3,11.4,3.1,18.5,3.5c12.5,0.7,23.8,2.4,34,5.1c3,0.8,5.7,1.9,7.8,3
	c4.4,2.4,14.3,3.8,21.3,2.6c6.6-1.2,13.1-2.5,19.3-4c5.6-1.3,7.3-0.8,12,0.8c10.2,3.5,14.4-6.6,30.2-5.9c2.9,0.1,6.1,0.7,8.4,1.4
	c7.5,2.3,16.3,2.8,25.4,3.1c4.3,0.1,8.5,0.3,12.8,0.6c1.1,0.1,2.1,0.1,3.2,0.1c6.6,0.2,12.6-0.5,18.4-1.9c3.4-0.8,7.6-1.2,11.2-2
	c2.6-0.5,5.6-1.2,7.3-2.1c3-1.6,10.2,13.1,14.7,13.7c4.3,0.5,6.5-0.3,9.2-1.3c2.4-0.9,5.8-1.3,8.7-2.1c2.5-0.7,5.2-1.3,6.9-2.2
	c2.7-1.5,6.1-1.6,9.4-0.8c9.5,2.2,19.6,1.6,29.5,1c11.5-0.7,21.8-0.4,30.5,2.8c3.4,1.3,7.3,1.9,12,0.8c1.3-0.3,3.3-0.3,5-0.4
	c2.6-0.1,5.4,0,7.7-0.3c6-0.9,10.7-0.6,15.8,1c1.8,0.6,6.3,0.1,9.4-0.1c1.8-0.2,3.2-0.9,4.7-1.5c3.8-1.3,7.8-1.6,12.2-0.5
	c6.5,1.5,12.4,1.5,18-0.7c3.3-1.3,7.5-1.7,12.3-1.3c5.2,0.4,7.7-0.4,9.3-2.4c0.5-0.7,1.7-1.4,3.2-1.8c3.5-0.8,7.3-1.6,11.2-2.1
	c2.7-0.3,6.4-0.6,8.8-0.2c5.9,1,11.6,2.2,16.8,3.7c6.1,1.7,9.7,1.4,13.5-1.1c3.5-2.3,8.3-4.3,12.7-6.5c5.1,1.2,9.3,2.3,14.9,3.7
	c2.6-1.2,5.5-2.4,8.3-3.7c3-1.3,6.5-1.6,10.6-0.9c5.8,1,11.2,2.2,13.7,4.7c1.1,1.1,12.5,3.1,15.8,2.9c5.9-0.3,11.9-0.9,17.8-0.9
	c4.3,0.1,9,0.8,12.8,1.6c3.4,0.8,5.7,0.7,7.9-0.4c2.5-1.2,4.7-2.6,7.3-3.8c6.9-3.3,15.7-4.9,26.7-3.8c8.7,0.8,17.2,1.8,25.6,2.8
	c2.9,0.4,6,0.9,7.9,1.8c3.7,1.6,7.8,1.6,12.6,1.1c4.5-0.4,9.1-0.9,13.6-0.9c2,0,4.8,0.8,6.1,1.5c2.6,1.4,5.5,1.8,9.4,0.8
	c5-1.2,9.9-2.5,15-3.7c3.1-0.8,6.2-1.1,9.6-0.2c6.2,1.7,12.8,2.7,20.6,2v24L1056.5,35.8L1056.5,35.8z"/>
<path class="st1" d="M0.1,15.7c7.3-0.3,14.6-0.6,22-0.8c4.1-0.1,8.1,0.1,7.8-2.4c-0.1-1.3,2.9-2.1,6.7-1.6c2.9,0.4,5.6,0.9,8.5,1.3
	c3.2,0.4,6.5,1,9.7,0.9c14.4-0.3,28.8-0.6,43.1-1.2c9.1-0.4,18.1-1.4,27.1-2.2c3.7-0.3,7-0.8,11.3-0.3c2.6,0.3,7.5-0.5,9.8-1.4
	c4.8-1.9,9.4-2.1,15.6-1.3c11.5,1.5,23.4,2.6,35,4c14.2,1.8,31.3-0.4,44.1-2.9c2.5-0.5,5.2-1,8.1-0.9c6.1,0.2,11.1,7.1,13.4,9
	c0.7,0.5,1.4,1.1,2.8,1.3c1.5,0.3,3.4,0.1,5-0.1c16.7-2.2,34.1-5.4,51.3-6.8c16.3-1.3,33-2.6,49.4-3.9c3.5-0.3,7.3,0.2,10.9,0.2
	c10.5-0.1,21-0.3,30.8,1.5c1.6,0.3,3.6,0.4,5.5,0.5c11,0.2,22,0.7,32.9,0.5c6.8-0.2,13.5-1.4,19.9-2.4c10.4-1.7,20.3-4,31-5.3
	c9-1.1,18.8-1.2,28.3-1.5c19.3-0.7,37.7,1.7,56.5,2.8c16.5,0.9,33,1.7,49.4,2.7c6.9,0.4,13.4,1.6,20.2,2.2c4.9,0.4,10,0.3,15,0.6
	c1.8,0.1,4.3,0.4,4.8,0.9c4.2,3.9,9.5-3.2,18.4-3.1c9.9,0.1,19.9-0.2,29.9-0.2c2.8,0,5.7,0.4,8.4,0.7c18.5,2.4,35-3.9,53.8-2
	C809,6.7,832.1,8.1,855,9.6c3.7,0.2,8.7-0.1,11.6-0.9c9.2-2.6,18.3-5.3,26.4-8.4c8-3,13.5,6.4,23.6,8.1c4,0.7,7,0.8,10.6,0
	c9.2-2,18.4-4,27.9-5.9c2.4-0.5,5.8-0.4,8.6-0.3c3.5,0.2,6.8,1,10.2,1.3c6,0.4,12.1,1,18.1,1c12.7-0.1,24.8,0.6,37,1.9
	c8.3,0.9,20.2,9.2,27.5,11v31.5c-2.7,0-5.5,0-8.2,0.1c-18.1,0.9-33.3-1.5-47-5.8c-1.6-0.5-4.2-1-5.9-0.9c-7.6,0.7-15.2,1.4-22.3,2.6
	c-5.8,0.9-10.7,2.6-16.2,3.8c-6,1.3-8.9,1.1-13.5-0.9c-9-3.8-11.7-3.7-19.5,0.7c-1.4,0.8-4.5,1.1-6.9,1.6c-1.2,0.3-3,0.3-3.9,0.7
	c-7.8,3.1-16.4-11.8-21-7.7c-6.9,1.1-11,4.2-19.5,4.2c-6,0-12-0.1-18,0c-2.1,0-4.2,0.5-6.2,0.9c-0.8,0.2-1.3,0.6-2.1,0.8
	c-2.3,0.6-4.7,1.2-7,1.8c-1.1-1-2.6-1.9-3.1-2.9c-1.8-3.3-6.9-5.3-16-4.3c-4.2,0.5-8.7,0.8-13,1.1c-5.8,0.5-10.1,1.7-13.7,3.5
	c-4.6,2.4-7.4,2.3-11-0.3c-1.8-1.3-3.8-1.7-7.4-1.1c-2.9,0.5-5.7,0.4-7.8-0.7c-4.6-2.3-11.4-3.1-18.5-3.5c-12.5-0.7-23.8-2.4-34-5.1
	c-3-0.8-5.7-1.9-7.8-3c-4.4-2.4-14.3-3.8-21.3-2.6c-6.7,1.2-13.1,2.5-19.3,4c-5.6,1.3-7.3,0.8-12-0.8c-10.2-3.5-14.4,6.6-30.2,5.9
	c-2.9-0.1-6.1-0.7-8.4-1.4c-7.5-2.3-16.3-2.8-25.4-3.1c-4.3-0.2-8.5-0.3-12.8-0.6c-1.1-0.1-2.1-0.1-3.2-0.1
	c-6.6-0.2-12.6,0.5-18.4,1.9c-3.4,0.8-7.6,1.2-11.2,2c-2.7,0.5-5.6,1.2-7.3,2c-3,1.6-10.2-13.1-14.7-13.7c-4.3-0.5-6.5,0.3-9.2,1.3
	c-2.4,0.9-5.9,1.3-8.6,2.1c-2.5,0.7-5.1,1.3-6.9,2.2c-2.7,1.5-6.1,1.6-9.4,0.8c-9.5-2.2-19.6-1.6-29.5-1
	c-11.5,0.7-21.8,0.4-30.5-2.8c-3.4-1.3-7.3-1.9-12-0.8c-1.3,0.3-3.3,0.3-5,0.4c-2.6,0.1-5.4,0-7.6,0.3c-6,0.9-10.7,0.6-15.8-1
	c-1.8-0.6-6.3-0.1-9.4,0.1c-1.8,0.2-3.2,0.9-4.7,1.5c-3.8,1.3-7.8,1.6-12.2,0.5c-6.5-1.5-12.4-1.5-18,0.7c-3.3,1.3-7.5,1.7-12.3,1.3
	c-5.2-0.4-7.7,0.4-9.3,2.4c-0.5,0.7-1.7,1.4-3.2,1.8c-3.5,0.8-7.3,1.6-11.1,2.1c-2.7,0.3-6.4,0.6-8.8,0.2c-5.9-1-11.6-2.2-16.8-3.7
	c-6.1-1.7-9.7-1.4-13.5,1.1c-3.5,2.3-8.4,4.3-12.6,6.5c-5.1-1.2-9.3-2.3-14.9-3.7c-2.6,1.2-5.5,2.4-8.4,3.7s-6.5,1.6-10.6,0.9
	c-5.8-1-11.2-2.2-13.6-4.7c-1.1-1.2-12.5-3.1-15.8-2.9c-5.9,0.3-11.9,0.9-17.8,0.8c-4.3-0.1-8.9-0.8-12.8-1.6
	c-3.4-0.8-5.7-0.7-7.9,0.4c-2.5,1.2-4.7,2.6-7.3,3.8c-6.9,3.3-15.7,4.9-26.7,3.8c-8.7-0.8-17.2-1.8-25.6-2.8c-2.9-0.3-6-0.9-7.9-1.8
	c-3.7-1.6-7.8-1.5-12.6-1.1c-4.5,0.4-9.1,0.9-13.6,0.9c-2,0-4.8-0.8-6.1-1.5c-2.6-1.4-5.5-1.8-9.4-0.8c-5,1.2-9.9,2.5-15,3.7
	c-3.1,0.8-6.2,1.1-9.6,0.2C14.4,40,7.8,39,0,39.7L0.1,15.7C0,15.7,0.1,15.7,0.1,15.7z"/>
</svg>
