<?xml version="1.0" encoding="utf-8"?>
<!-- Generator: Adobe Illustrator 28.3.0, SVG Export Plug-In . SVG Version: 6.00 Build 0)  -->
<svg version="1.1" id="Capa_1" xmlns="http://www.w3.org/2000/svg" xmlns:xlink="http://www.w3.org/1999/xlink" x="0px" y="0px"
	 viewBox="0 0 1056.6 62.1" style="enable-background:new 0 0 1056.6 62.1;" xml:space="preserve">
<style type="text/css">
	.st0{fill: #db2020;}
</style>
<path class="st0" d="M0.1,19c7.3-0.3,14.6-0.7,22-0.9c4.1-0.1,8.1,0.1,7.8-2.9c-0.1-1.5,2.9-2.5,6.7-1.9c2.9,0.5,5.6,1.1,8.5,1.6
	c3.2,0.5,6.5,1.2,9.7,1.1c14.4-0.3,28.8-0.7,43.1-1.4c9.1-0.5,18.1-1.7,27.1-2.6c3.7-0.4,7-1,11.3-0.3c2.6,0.4,7.5-0.6,9.8-1.7
	c4.8-2.3,9.4-2.5,15.6-1.6c11.5,1.8,23.4,3.1,35,4.8c14.2,2.1,31.3-0.5,44.1-3.4c2.5-0.6,5.2-1.2,8.1-1.1
	c6.1,0.3,11.1,8.6,13.4,10.8c0.7,0.6,1.4,1.3,2.8,1.6c1.5,0.3,3.4,0.1,5-0.2c16.7-2.7,34.1-6.5,51.3-8.2c16.3-1.6,33-3.1,49.4-4.7
	c3.5-0.3,7.3,0.3,10.9,0.2c10.5-0.2,21-0.3,30.8,1.9c1.6,0.4,3.6,0.5,5.5,0.6c11,0.3,22,0.9,32.9,0.6c6.8-0.2,13.5-1.6,19.9-2.9
	c10.4-2,20.3-4.8,31-6.3c9-1.3,18.8-1.5,28.3-1.9c19.3-0.8,37.7,2,56.5,3.3c16.5,1.1,33,2,49.4,3.3c6.9,0.5,13.4,1.9,20.2,2.6
	c4.9,0.5,10,0.4,15,0.7c1.8,0.1,4.3,0.5,4.8,1.1c4.2,4.7,9.5-3.9,18.4-3.8c9.9,0.1,19.9-0.2,29.9-0.2c2.8,0,5.7,0.5,8.4,0.9
	c18.5,2.9,35-4.6,53.8-2.4c22.5,2.7,45.6,4.3,68.5,6.2c3.7,0.3,8.7-0.1,11.6-1.1c9.2-3.1,18.3-6.4,26.4-10.1
	c8-3.7,13.5,7.7,23.6,9.7c4,0.8,7,0.9,10.6,0c9.2-2.4,18.4-4.9,27.9-7.1c2.4-0.6,5.8-0.5,8.6-0.3c3.5,0.3,6.8,1.2,10.2,1.5
	c6,0.5,12.1,1.2,18.1,1.2c12.7-0.1,24.8,0.7,37,2.3c8.3,1.1,20.2,11.1,27.5,13.3v37.9c-2.7,0-5.5,0-8.2,0.1c-18.1,1.1-33.3-1.9-47-7
	c-1.6-0.6-4.2-1.2-5.9-1c-7.6,0.9-15.2,1.7-22.3,3.1c-5.8,1.1-10.7,3.1-16.2,4.6c-6,1.6-8.9,1.3-13.5-1.1c-9-4.6-11.7-4.4-19.5,0.9
	c-1.4,0.9-4.5,1.3-6.9,2c-1.2,0.3-3,0.4-3.9,0.8c-7.8,3.8-16.4-14.2-21-9.2c-6.9,1.4-11,5-19.5,5.1c-6,0-12-0.2-18,0
	c-2.1,0-4.2,0.6-6.2,1.1c-0.8,0.2-1.3,0.8-2.1,1c-2.3,0.7-4.7,1.4-7,2.1c-1.1-1.2-2.6-2.3-3.1-3.5c-1.8-3.9-6.9-6.4-16-5.1
	c-4.2,0.6-8.7,0.9-13,1.3c-5.8,0.6-10.1,2-13.7,4.3c-4.6,2.9-7.4,2.7-11-0.4c-1.8-1.6-3.8-2-7.4-1.3c-2.9,0.6-5.7,0.5-7.8-0.8
	c-4.6-2.8-11.4-3.7-18.5-4.2c-12.5-0.8-23.8-2.9-34-6.2c-3-1-5.7-2.3-7.8-3.7c-4.4-2.9-14.3-4.6-21.3-3.1
	c-6.7,1.4-13.1,3.1-19.3,4.8c-5.6,1.6-7.3,1-12-1c-10.2-4.3-14.4,8-30.2,7.1c-2.9-0.2-6.1-0.8-8.4-1.7c-7.5-2.8-16.3-3.4-25.4-3.8
	c-4.3-0.2-8.5-0.4-12.8-0.7c-1.1-0.1-2.1-0.1-3.2-0.2c-6.6-0.2-12.6,0.6-18.4,2.3c-3.4,1-7.6,1.5-11.2,2.4c-2.7,0.7-5.6,1.4-7.3,2.5
	c-3,1.9-10.2-15.8-14.7-16.5c-4.3-0.6-6.5,0.4-9.2,1.6c-2.4,1.1-5.9,1.6-8.6,2.5c-2.5,0.8-5.1,1.6-6.9,2.7c-2.7,1.7-6.1,1.9-9.4,1
	c-9.5-2.7-19.6-1.9-29.5-1.2c-11.5,0.8-21.8,0.5-30.5-3.4c-3.4-1.5-7.3-2.3-12-1c-1.3,0.4-3.3,0.4-5,0.5c-2.6,0.1-5.4,0-7.6,0.4
	c-6,1.1-10.7,0.7-15.8-1.2c-1.8-0.7-6.3-0.2-9.4,0.2c-1.8,0.2-3.2,1.1-4.7,1.8c-3.8,1.6-7.8,1.9-12.2,0.6c-6.5-1.9-12.4-1.8-18,0.9
	c-3.3,1.5-7.5,2.1-12.3,1.6c-5.2-0.5-7.7,0.5-9.3,2.9c-0.5,0.8-1.7,1.7-3.2,2.1c-3.5,1-7.3,1.9-11.1,2.5c-2.7,0.4-6.4,0.7-8.8,0.2
	c-5.9-1.2-11.6-2.7-16.8-4.4c-6.1-2.1-9.7-1.6-13.5,1.3c-3.5,2.8-8.4,5.2-12.6,7.8c-5.1-1.5-9.3-2.8-14.9-4.4
	c-2.6,1.4-5.5,2.9-8.4,4.5c-2.9,1.6-6.5,2-10.6,1c-5.8-1.3-11.2-2.7-13.6-5.7c-1.1-1.4-12.5-3.8-15.8-3.5c-5.9,0.4-11.9,1.1-17.8,1
	c-4.3-0.1-8.9-1-12.8-2c-3.4-0.9-5.7-0.9-7.9,0.4c-2.5,1.5-4.7,3.1-7.3,4.6c-6.9,4-15.7,5.9-26.7,4.6c-8.7-1-17.2-2.1-25.6-3.4
	c-2.9-0.4-6-1.1-7.9-2.1c-3.7-2-7.8-1.9-12.6-1.4c-4.5,0.5-9.1,1-13.6,1.1c-2,0-4.8-0.9-6.1-1.8c-2.6-1.7-5.5-2.2-9.4-1
	c-5,1.5-9.9,3-15,4.5c-3.1,0.9-6.2,1.3-9.6,0.2c-6.2-2-12.8-3.3-20.5-2.4v-29L0.1,19L0.1,19z"/>
</svg>
