<?xml version="1.0" encoding="UTF-8"?>
<svg id="Capa_1" data-name="Capa 1" xmlns="http://www.w3.org/2000/svg" viewBox="0 0 367.67 214.04">
  <defs>
    <style>
      .cls-1 {
        fill: #fff;
        stroke-width: 0px;
      }

      .cls-2 {
        fill: red;
        stroke: #1d1d1b;
        stroke-miterlimit: 10;
      }
    </style>
  </defs>
  <ellipse class="cls-2" cx="183.83" cy="107.02" rx="183.33" ry="106.52"/>
  <g>
    <path class="cls-1" d="M125.03,115.4l-5.47-16.75h2.34l2.61,8.25c.72,2.26,1.34,4.3,1.79,6.26h.05c.47-1.94,1.17-4.05,1.91-6.24l2.83-8.28h2.31l-5.99,16.75h-2.39Z"/>
    <path class="cls-1" d="M143.89,107.54h-6.51v6.04h7.26v1.81h-9.42v-16.75h9.05v1.81h-6.89v5.29h6.51v1.79Z"/>
    <path class="cls-1" d="M159.15,114.85c-.8.4-2.39.8-4.42.8-4.72,0-8.28-2.98-8.28-8.48s3.55-8.8,8.75-8.8c2.09,0,3.41.45,3.98.75l-.52,1.76c-.82-.4-1.99-.7-3.38-.7-3.93,0-6.54,2.51-6.54,6.91,0,4.1,2.36,6.74,6.44,6.74,1.32,0,2.66-.27,3.53-.7l.45,1.71Z"/>
    <path class="cls-1" d="M165.74,100.48h-5.1v-1.84h12.4v1.84h-5.12v14.91h-2.19v-14.91Z"/>
    <path class="cls-1" d="M188.56,106.85c0,5.77-3.5,8.82-7.78,8.82s-7.53-3.43-7.53-8.5c0-5.32,3.31-8.8,7.78-8.8s7.53,3.5,7.53,8.48ZM175.56,107.12c0,3.58,1.94,6.79,5.34,6.79s5.37-3.16,5.37-6.96c0-3.33-1.74-6.81-5.34-6.81s-5.37,3.31-5.37,6.98Z"/>
    <path class="cls-1" d="M191.36,98.87c1.09-.22,2.66-.35,4.15-.35,2.31,0,3.8.42,4.85,1.37.84.75,1.32,1.89,1.32,3.18,0,2.21-1.39,3.68-3.16,4.28v.08c1.29.45,2.06,1.64,2.46,3.38.55,2.34.95,3.95,1.29,4.6h-2.24c-.27-.47-.65-1.91-1.12-4-.5-2.31-1.39-3.18-3.36-3.26h-2.04v7.26h-2.16v-16.53ZM193.53,106.5h2.21c2.31,0,3.78-1.27,3.78-3.18,0-2.16-1.57-3.11-3.85-3.13-1.04,0-1.79.1-2.14.2v6.12Z"/>
    <path class="cls-1" d="M212.17,100.48h-5.09v-1.84h12.4v1.84h-5.12v14.91h-2.19v-14.91Z"/>
    <path class="cls-1" d="M234.99,106.85c0,5.77-3.5,8.82-7.78,8.82s-7.53-3.43-7.53-8.5c0-5.32,3.31-8.8,7.78-8.8s7.53,3.5,7.53,8.48ZM221.99,107.12c0,3.58,1.94,6.79,5.34,6.79s5.37-3.16,5.37-6.96c0-3.33-1.74-6.81-5.34-6.81s-5.37,3.31-5.37,6.98Z"/>
    <path class="cls-1" d="M237.79,98.84c1.04-.17,2.41-.32,4.15-.32,2.14,0,3.7.5,4.7,1.39.92.79,1.47,2.01,1.47,3.5s-.45,2.71-1.29,3.58c-1.14,1.22-3.01,1.84-5.12,1.84-.65,0-1.24-.02-1.74-.15v6.71h-2.16v-16.55ZM239.96,106.92c.47.12,1.07.17,1.79.17,2.61,0,4.2-1.27,4.2-3.58s-1.57-3.28-3.95-3.28c-.94,0-1.67.07-2.04.17v6.51Z"/>
  </g>
</svg>